<svg xmlns="http://www.w3.org/2000/svg" viewBox="0 0 512 512">
  <defs>
    <linearGradient id="w" x1="0%" y1="0%" x2="100%" y2="0%">
      <stop offset="0%" style="stop-color:#ddc;stop-opacity:1" />
      <stop offset="100%" style="stop-color:#ffd;stop-opacity:1" />
    </linearGradient>
    <linearGradient id="b" x1="0%" y1="0%" x2="100%" y2="0%">
      <stop offset="0%" style="stop-color:#000;stop-opacity:1" />
      <stop offset="100%" style="stop-color:#554;stop-opacity:1" />
    </linearGradient>
  </defs>
  <title>HTML5 Logo Badge</title>
  <path fill="#E34F26" d="M71,460 L30,0 481,0 440,460 255,512"/>
  <path fill="#EF652A" d="M256,472 L405,431 440,37 256,37"/>
  <rect x="4" y="150" width="72" height="220" fill="url(#w)" />
  <rect x="76" y="150" width="72" height="220" fill="url(#w)" />
  <rect x="148" y="150" width="72" height="220" fill="url(#w)" />
  <rect x="220" y="150" width="72" height="220" fill="url(#w)" />
  <rect x="292" y="150" width="72" height="220" fill="url(#w)" />
  <rect x="364" y="150" width="72" height="220" fill="url(#w)" />
  <rect x="436" y="150" width="72" height="220" fill="url(#w)" />
  <rect x="50" y="150" width="44" height="144" fill="url(#b)" />
  <rect x="130" y="150" width="44" height="144" fill="url(#b)" />
  <rect x="262" y="150" width="44" height="144" fill="url(#b)" />
  <rect x="342" y="150" width="44" height="144" fill="url(#b)" />
  <rect x="422" y="150" width="44" height="144" fill="url(#b)" />
</svg>
